<?xml version="1.0" standalone="no"?>
<!DOCTYPE svg PUBLIC "-//W3C//DTD SVG 20010904//EN"
 "http://www.w3.org/TR/2001/REC-SVG-20010904/DTD/svg10.dtd">
<svg version="1.0" xmlns="http://www.w3.org/2000/svg"
 width="700.000000pt" height="700.000000pt" viewBox="0 0 700.000000 700.000000"
 preserveAspectRatio="xMidYMid meet">
<metadata>
Created by potrace 1.14, written by Peter Selinger 2001-2017
</metadata>
<g transform="translate(0.000000,700.000000) scale(0.100000,-0.100000)"
fill="#000000" stroke="none">
<path d="M3877 6594 c-1 -1 -67 -4 -147 -7 -80 -3 -152 -8 -160 -11 -8 -2 -37
-7 -65 -10 -103 -12 -131 -16 -155 -22 -14 -3 -36 -8 -50 -11 -27 -5 -161 -36
-225 -52 -169 -43 -551 -206 -710 -304 -287 -176 -443 -297 -639 -492 -287
-287 -513 -623 -674 -1000 -47 -111 -127 -339 -136 -389 -2 -11 -9 -39 -14
-61 -6 -22 -14 -55 -17 -73 -3 -18 -12 -64 -20 -104 -9 -39 -18 -98 -21 -132
-3 -33 -8 -64 -9 -67 -5 -6 -19 -223 -18 -262 1 -23 -9 -35 -61 -69 -86 -58
-149 -110 -239 -197 -79 -78 -217 -248 -238 -295 -7 -14 -15 -26 -19 -26 -11
0 -137 -261 -163 -340 -29 -83 -62 -211 -72 -280 -4 -25 -9 -54 -12 -65 -3
-11 -6 -105 -8 -210 -2 -210 12 -331 60 -506 47 -173 143 -364 264 -524 53
-69 233 -253 306 -312 219 -175 489 -297 750 -339 17 -2 40 -7 53 -10 12 -2
60 -7 105 -11 111 -8 3912 -8 4007 1 136 11 232 34 388 91 139 50 313 167 446
299 251 249 373 500 412 846 11 92 3 357 -11 380 -2 3 -7 27 -10 53 -4 25 -15
72 -24 105 l-18 59 37 89 c60 147 133 374 155 482 1 9 10 51 18 92 22 105 26
138 46 320 9 76 6 502 -3 575 -2 22 -7 65 -11 96 -3 31 -7 64 -9 75 -2 10 -11
60 -21 109 -9 50 -23 117 -32 150 -8 33 -17 69 -19 79 -7 38 -77 242 -112 326
-127 310 -312 617 -516 855 -79 93 -285 298 -366 366 -36 30 -67 56 -70 59 -3
3 -45 35 -95 71 -489 356 -1043 560 -1610 595 -88 5 -245 10 -248 8z"/>
</g>
</svg>
